<svg xmlns="http://www.w3.org/2000/svg" viewBox="0 0 477.76 625.02"><defs><style>.cls-1{fill:#231f20;}</style></defs><title>flower_1</title><g id="Layer_2" data-name="Layer 2"><g id="Layer_2-2" data-name="Layer 2"><path class="cls-1" d="M373.88,75.62c-5.47-11.71-17.54-33-41.67-48.61-16.77-10.82-24.82-11.44-29.32-10.8C289.2,18.15,281,29.89,278.68,33.43a28.26,28.26,0,0,0-14.35,36.21c-1.46,7.64-2.79,20.69,4.61,27.59,6.83,6.37,17.64,4.29,27.78,3.09,15-1.79,36.07-2.58,63,1.8a130,130,0,0,0-33.54,20.12c-12.15,10.11-33.49,27.86-29.81,46.22,1.55,7.75,7.09,13.2,11.18,16.39,0,1.08,1,18.79,16.4,27.58,13,7.41,26.06,2.71,27.87,2,4.89,1.16,18,3.54,28.2-3.79,6.11-4.37,9.25-11.6,13.12-30.09a154.76,154.76,0,0,0,0-62.5,58,58,0,0,1,13.6,20.05c6.8,17.17,1.16,29.13,11.12,42.26,2.15,2.83,5.3,6.87,10.77,8.68,12.94,4.27,26.14-8.14,27.44-9.39a30,30,0,0,0,12.73-9.83c8.5-11.6,7.49-29.53-2.39-45.38-1.08-14.29-7-20.78-10-23.37-4-3.47-9.24-4.84-33.18-7.72a218.6,218.6,0,0,0-30.09-1.54,68.13,68.13,0,0,1,23.15-9.26c22-4.28,35.37,5.12,45.52-2.32,3.93-2.87,8.54-9.12,8.49-24.69a27,27,0,0,0,5.7-28A27.12,27.12,0,0,0,449.57,10.5C445.74,7.12,436.34-.16,423.87,0c-19.06.26-31,17.71-36.87,26.24C373.73,45.61,373.39,66.3,373.88,75.62Z"/><path class="cls-1" d="M311.16,416.57c-7.26,2.45-14.22-2.89-20.17-7.45-7.76-5.94-11-13.37-16.06-25.15a142.23,142.23,0,0,1-7.91-23.9c28.43-9.23,53.73.84,59.9,16.8C332.44,391.15,323.65,412.35,311.16,416.57Z"/><path class="cls-1" d="M408.5,373.62c-14,7.95-31.85-.44-38.13-3.83-1-.52-1.67-.91-1.83-1-13.88-8.2-17.64-21.66-27.63-45.54-2.31-5.52-6-14-10.93-24.51,37.66-16.81,75.06-7.14,88.12,15.44C428.61,332.34,426.08,363.59,408.5,373.62Z"/><path class="cls-1" d="M253.58,178.67c10.81-8.06,35.06,1.43,43.93,17.78,6.36,11.71,3.73,24.66,1.76,33.12A76.17,76.17,0,0,1,288,255.18c-6.51-3.7-38.58-22.7-40.75-53.42C246.9,197.33,246,184.35,253.58,178.67Z"/><path class="cls-1" d="M249.45,261c8.24,6.32,9.44,16.48,9.93,20.72,2,16.82-8,29.33-10.44,32.23-3.9-2.21-9.44-5.51-15.88-9.87-10.34-7-15.57-10.61-18.33-15.61-3.34-6.07-6-17-.52-24.82C221.4,253.43,239.3,253.21,249.45,261Z"/><path class="cls-1" d="M14.1,625a69.24,69.24,0,0,1-10-18.49,74.59,74.59,0,0,1-4-20.92,84.6,84.6,0,0,1,1.81-21.35,111.46,111.46,0,0,1,6.45-20.4c1.4-3.27,2.9-6.5,4.48-9.65.75-1.56,1.65-3.15,2.51-4.72s1.74-3.16,2.74-4.64l2.9-4.51L24.08,516c1-1.47,2.12-2.85,3.22-4.24s2.17-2.8,3.29-4.17A351.54,351.54,0,0,1,59.64,477c20.4-19.23,42.09-36.85,64.07-54s44.4-33.69,66.68-50.3c11.12-8.32,22.28-16.57,33.18-25.05,5.45-4.25,10.86-8.51,16.06-13,2.59-2.24,5.24-4.41,7.78-6.71l7.6-6.93q14.92-14.13,28.43-29.67c2.22-2.6,4.38-5.27,6.57-7.9l3.28-4,3.14-4.07,6.26-8.16,6-8.38c4.07-5.52,7.68-11.36,11.47-17.08l1.42-2.15c.46-.72.89-1.46,1.34-2.19l2.67-4.4,5.33-8.81,5-9,2.5-4.5c.85-1.5,1.68-3,2.44-4.54l4.66-9.19c1.55-3.07,3.17-6.1,4.56-9.25l4.33-9.36,2.16-4.68c.74-1.55,1.35-3.16,2-4.74l4-9.52c1.32-3.18,2.7-6.33,3.87-9.57l3.65-9.65,1.84-4.83.92-2.41c.3-.81.56-1.63.84-2.44l6.67-19.56,11.43,3.65-6.7,19.94c-.28.83-.55,1.67-.85,2.49l-.92,2.47-1.85,4.93-3.71,9.85c-1.2,3.3-2.61,6.52-4,9.76l-4.08,9.71c-.7,1.61-1.33,3.25-2.09,4.84l-2.21,4.78L361,193c-1.43,3.21-3.08,6.32-4.67,9.46l-4.79,9.39c-.78,1.58-1.63,3.12-2.5,4.65l-2.57,4.61-5.14,9.21-5.48,9-2.75,4.51c-.46.75-.9,1.51-1.38,2.25l-1.45,2.2c-3.94,5.84-7.7,11.8-11.92,17.45l-6.2,8.56-6.5,8.34-3.26,4.16-3.4,4c-2.28,2.69-4.51,5.42-6.83,8.07q-14,15.86-29.49,30.31l-7.87,7.07c-2.63,2.34-5.38,4.56-8.06,6.85-5.39,4.54-10.94,8.85-16.49,13.1Q213.54,369,196.61,381.2c-22.55,16.3-45.12,32.48-67.25,49.2s-43.87,33.9-64.22,52.54C45,501.67,25.32,521.52,14.42,546.53a123.91,123.91,0,0,0-6.88,19.06,88.18,88.18,0,0,0-3,20A78.13,78.13,0,0,0,5,595.71c.1.84.11,1.7.28,2.53l.43,2.51.42,2.52c.18.83.35,1.67.56,2.5A82.08,82.08,0,0,0,14.1,625Z"/><path class="cls-1" d="M194.4,379.59l-2.46-4.35c20.1-11.32,41.15-17.06,62.58-17.06h.69A120.49,120.49,0,0,1,273,359.62l-.77,4.94a115.91,115.91,0,0,0-17-1.38C234.39,363.1,213.94,368.59,194.4,379.59Z"/><path class="cls-1" d="M254.24,331.87,251,328c20.72-17.37,44.74-28.08,69.46-30.95a122,122,0,0,1,23.26-.46l-.37,5a117,117,0,0,0-22.31.45C297.32,304.81,274.21,315.12,254.24,331.87Z"/><path class="cls-1" d="M234.94,352l-3.22-2.37a83.59,83.59,0,0,0,16.18-54.35l4-.23A87.54,87.54,0,0,1,234.94,352Z"/><path class="cls-1" d="M270.76,313.58,267,310.25a76.17,76.17,0,0,0,18.43-63.37l4.93-.82a80.89,80.89,0,0,1-1.31,33A81.84,81.84,0,0,1,270.76,313.58Z"/></g></g></svg>