<svg width="1924" height="2517" viewBox="0 0 1924 2517" fill="none" xmlns="http://www.w3.org/2000/svg">
<path d="M1706.41 0.0117878C1756.65 -0.673041 1794.45 28.6568 1809.9 42.2745C1831.44 40.9945 1852.87 46.2483 1871.38 57.3487C1889.89 68.4492 1904.62 84.8802 1913.65 104.494C1922.68 124.108 1925.59 145.993 1922 167.288C1918.4 188.583 1908.48 208.298 1893.51 223.856C1893.71 286.585 1875.15 311.725 1859.34 323.328C1818.44 353.303 1764.62 315.432 1676.06 332.635C1642.97 339.243 1611.38 351.89 1582.87 369.942C1623.36 369.257 1663.84 371.343 1704.04 376.187C1800.4 387.79 1821.5 393.31 1837.6 407.25C1849.68 417.725 1873.5 443.873 1877.85 501.444C1917.62 565.262 1921.69 637.499 1887.47 684.274C1874.27 701.87 1856.55 715.556 1836.19 723.878C1831 728.914 1777.82 778.872 1725.77 761.669C1703.75 754.417 1691.03 738.1 1682.42 726.738C1642.29 673.839 1664.99 625.654 1637.62 556.439C1625.25 526.016 1606.59 498.556 1582.87 475.861C1600 558.92 1600 644.606 1582.87 727.665C1567.33 802.199 1554.65 831.287 1530.06 848.934C1489 878.465 1436.23 868.836 1416.54 864.203C1415.32 864.678 1412.81 865.608 1409.23 866.687C1408.14 868.654 1407.05 870.619 1405.95 872.587L1395.59 891.106L1374.89 928.224L1352.82 964.455L1341.74 982.611C1339.89 985.631 1338.11 988.691 1336.18 991.67L1330.3 1000.57C1314.47 1024.08 1299.32 1048.07 1282.33 1070.82L1257.35 1105.24L1231.17 1138.81L1218.04 1155.56L1204.34 1171.86C1195.16 1182.69 1186.14 1193.64 1176.83 1204.35C1167.59 1214.8 1158.23 1225.14 1148.75 1235.37C1194.48 1215.56 1242.03 1202.6 1290.21 1197.02C1310.93 1194.63 1331.77 1193.55 1352.6 1193.79C1495.52 1140.36 1632.9 1179.73 1682.55 1265.59C1724.92 1338.3 1714.76 1463.77 1643.99 1504.15C1587.76 1536.07 1516.1 1502.39 1490.83 1488.82C1486.82 1486.73 1484.17 1485.12 1483.52 1484.8C1427.77 1451.88 1412.67 1397.84 1372.54 1301.97C1364.05 1281.71 1350.89 1251.41 1333.53 1214.07C1319.83 1214.45 1306.14 1215.42 1292.51 1216.98C1228.82 1224.35 1166.19 1245.2 1107.66 1278.22C1091.45 1294.58 1074.91 1310.63 1058.05 1326.37L1026.35 1354.8C1015.75 1364.26 1004.68 1373.15 993.88 1382.37C972.169 1400.69 949.774 1418 927.418 1435.11C916.592 1443.37 905.745 1451.59 894.878 1459.76C937.648 1447.91 981.126 1441.95 1025.01 1441.95H1027.75C1047.34 1442.1 1066.9 1443.45 1086.31 1445.99C1196.28 1414.89 1292.5 1454.86 1316.55 1517.01C1338.64 1574.51 1303.13 1659.91 1252.82 1676.86C1223.52 1686.73 1195.5 1665.27 1171.48 1646.91C1140.24 1622.75 1127.34 1593.03 1106.98 1545.64C1095.71 1519.62 1086.38 1492.81 1079.08 1465.43C1062.05 1463.41 1044.91 1462.34 1027.75 1462.23C964.387 1461.86 901.832 1474.42 841.074 1499.74C824.76 1511.71 808.401 1523.58 791.996 1535.35C701.004 1601.09 609.971 1666.11 520.992 1733.5C432.014 1800.89 344.122 1870.02 262.273 1945.02C181.229 2020.38 101.878 2100.33 58.134 2201.06C46.809 2225.75 37.5398 2251.33 30.4211 2277.55C23.3229 2303.83 19.2683 2330.85 18.3372 2358.06C17.9283 2371.67 18.4261 2385.3 19.8274 2398.84C20.2302 2402.22 20.2706 2405.69 20.9553 2409.03L22.6868 2419.13L24.3791 2429.32C25.1042 2432.66 25.7891 2436.04 26.635 2439.34C33.3515 2466.39 43.4471 2492.48 56.6838 2517C39.5519 2494.38 25.969 2469.28 16.4036 2442.56C7.06431 2415.41 1.63897 2387.07 0.291259 2358.38C-0.899443 2329.54 1.56385 2300.66 7.62231 2272.43C13.5951 2244.29 22.2826 2216.78 33.5627 2190.31C39.2019 2177.1 45.2847 2164.1 51.6086 2151.46C54.6296 2145.18 58.2547 2138.78 61.759 2132.46C65.2634 2126.14 68.7681 2119.7 72.7961 2113.78L84.4768 2095.62L97.0041 2078.15C101.032 2072.27 105.503 2066.68 109.934 2061.08C114.365 2055.48 118.715 2049.85 123.227 2044.33C159.7 2000.98 198.777 1959.88 240.24 1921.26C322.371 1843.85 409.779 1772.91 498.315 1703.87C586.85 1634.83 677.158 1568.28 766.862 1501.42C811.693 1467.88 856.647 1434.71 900.552 1400.53C922.504 1383.42 944.296 1366.31 965.241 1348.19C966.876 1346.78 968.516 1345.37 970.159 1343.97C981.923 1317.01 990.126 1288.59 994.551 1259.45C979.605 1250.79 960.254 1239.05 938.371 1224.25C896.749 1196.12 875.695 1181.62 864.585 1161.54C851.1 1137.11 840.433 1093.24 862.452 1061.79C891.637 1020.77 963.491 1019.89 1004.35 1051.14C1037.52 1076.53 1042.31 1117.39 1044.32 1134.38C1050.69 1187.82 1026.84 1230.45 1011.73 1251.71C1008.82 1275.59 1003.49 1299.07 995.858 1321.79C996.098 1321.57 996.34 1321.36 996.579 1321.14L1027.15 1293.28C1049.31 1272.3 1070.89 1250.76 1091.87 1228.64C1116.38 1195.96 1134.22 1158.7 1144.27 1118.95C1152.05 1087.88 1154.86 1055.83 1152.65 1023.99C1116.12 1002.42 1003.13 928.151 994.965 812.861C993.675 795.114 990.005 742.877 1020.66 719.939C1064.25 687.462 1162.01 725.654 1197.82 791.492C1223.43 838.617 1212.87 890.733 1204.92 924.738C1197.98 954.24 1186.69 982.508 1171.47 1008.64C1175.82 1047.17 1173.24 1086.22 1163.79 1123.93C1160.51 1136.87 1156.46 1149.56 1151.67 1161.94C1157.18 1155.31 1162.63 1148.63 1168.17 1141.99L1181.38 1126.09L1194.03 1109.67L1219.25 1076.86L1243.42 1043.12C1259.77 1020.86 1274.31 997.347 1289.62 974.359L1295.3 965.703C1297.15 962.805 1298.92 959.786 1300.69 956.847L1311.45 939.133L1332.96 903.706L1350.79 871.631C1336.14 869.749 1320.23 865.192 1304.36 856.146C1242.37 820.691 1238.34 749.34 1238.34 745.029C1221.88 732.137 1199.62 710.22 1193.34 678.956C1178.56 604.986 1264.46 533.474 1313.37 492.782C1354.02 459.077 1399.54 431.733 1448.38 411.682C1339.98 394.076 1255.17 397.258 1194.79 404.43C1153.97 409.305 1110.41 417.644 1082.96 392.021C1053.17 364.181 1058.53 311.605 1064.4 280.864C1053.51 253.783 1053.42 223.547 1064.17 196.404C1074.91 169.262 1095.66 147.287 1122.13 135.02C1131.39 120.798 1164.51 73.4577 1219.62 65.6417C1237.74 63.0633 1270.1 65.5622 1337.65 109.194C1434.78 171.884 1483.37 257.859 1505.38 305.037C1503.41 267.367 1504.74 184.172 1558.04 105.69C1581.62 71.3233 1629.93 1.019 1706.41 0.0117878Z" fill="#A293B2"/>
</svg>
