<svg width="9532" height="12366" viewBox="0 0 9532 12366" fill="none" xmlns="http://www.w3.org/2000/svg">
<path d="M8410 9286.95V12225H800.805V12005.3C1011.47 11999.4 1219.59 11957.5 1416.2 11881.6C1569.24 11800.9 1707.01 11694 1823.29 11565.9C1960.56 11400.9 2028.73 11189.3 2013.52 10975.2V3314.79C2013.52 3049.42 1949.79 2849.68 1823.29 2717.48C1704.44 2592.34 1565.57 2487.87 1412.39 2408.36C1215.65 2332.92 1007.61 2291.12 797 2284.71V2065H4791.83V2284.71C4586.31 2289.88 4383.38 2331.75 4192.6 2408.36C4033.8 2484.64 3890.33 2589.41 3769.34 2717.48C3640.94 2849.68 3579.11 3049.42 3579.11 3314.79V11854.1H6795.9C7054.28 11825.6 7296.69 11714.9 7487.39 11538.3C7696.6 11318.4 7856.47 11056.4 7956.3 10769.8C8095.17 10421.7 8164.6 9927.38 8164.6 9286.95H8410Z" fill="#EDE6DD"/>
<path d="M7428.13 1494.65C7250.21 1107.09 6966.74 777.481 6610.17 543.564C6426.61 420.873 6263.02 315.303 6035.7 325.765C5661.92 348.591 5390.85 689.08 5274.81 958.238C5149.27 1262.59 5124.54 1726.72 5369.93 1915.03C5501.18 2016.8 5655.26 2010.14 5913.96 1974.95C6325.71 1928.41 6741.97 1940.26 7150.4 2010.14C6912.81 2108.08 6691.27 2241.13 6493.19 2404.84C6224.02 2629.3 5875.92 2931.74 5908.25 3311.23C5940.59 3690.71 6358.13 3939.9 6515.06 4027.4C6583.54 4066.39 7188.45 4407.83 7548.92 4143.43C7709.65 4024.54 7746.75 3838.13 7805.72 3552.8C7889.3 3148.43 7889.3 2731.23 7805.72 2326.85C7920.76 2437.88 8010.89 2572.1 8070.12 2720.6C8203.28 3057.29 8092.95 3291.25 8287.93 3549C8339.75 3625.54 8413.28 3684.84 8499.07 3719.24C8769.19 3814.35 9122.05 3590.85 9287.54 3338.81C9578.58 2901.31 9400.73 2221.28 9044.06 1990.17C8992.7 1956.88 8942.29 1935.96 8393.5 1838.94C8122.44 1791.39 7897.02 1754.3 7740.09 1728.62C7889.25 1611.8 8058.46 1523.17 8239.42 1467.07C8816.75 1286.36 9182.92 1562.18 9409.29 1350.09C9599.51 1168.43 9537.69 779.433 9431.16 549.27C9338.22 363.746 9189.6 211.924 9006.09 115.057C8822.59 18.1898 8613.39 -18.8746 8407.77 9.05231C8007.35 68.0197 7780.04 389.488 7684.93 523.591C7495.31 810.432 7405.1 1151.58 7428.13 1494.65Z" fill="#EDE6DD"/>
<path d="M7869.3 2291.62C7584.52 3204.91 7185.05 4078.38 6680.45 4891.11C5962.38 6054.37 4939.96 6932.28 3818.63 7700.81C2598.38 8686.2 884.528 9533.68 334.8 11125C229.149 11492.2 272.55 11886.2 455.588 12221.6C439.42 12620.2 108.442 12082.8 86.5665 11936.3C-129.33 11330.4 86.5665 10677 426.104 10162.4C2067.68 7991.86 4875.28 7057.83 6294.3 4700.88C6623.38 4180.73 6904.78 3631.91 7135.06 3061.1C7191.18 2945.06 7284.39 2657.81 7333.84 2539.87L7465.09 2159.41C7473.13 2135.85 7490.08 2116.38 7512.3 2105.18C7534.53 2093.97 7560.26 2091.93 7583.98 2099.49C7649.6 2148.95 7926.37 2143.24 7869.3 2291.62Z" fill="#EDE6DD"/>
<path d="M5723 11352C6602.79 11352 7316 10638.6 7316 9758.5C7316 8878.43 6602.79 8165 5723 8165C4843.21 8165 4130 8878.43 4130 9758.5C4130 10638.6 4843.21 11352 5723 11352Z" fill="#EDE6DD"/>
</svg>
