<svg width="429" height="133" viewBox="0 0 429 133" fill="none" xmlns="http://www.w3.org/2000/svg">
<path d="M64.2823 82.4672V100.903H16.8938V99.5266C18.2053 99.4889 19.5009 99.2263 20.725 98.7501C21.6784 98.2438 22.5369 97.5737 23.2619 96.77C24.0579 95.9059 24.4569 94.6705 24.4588 93.0637V44.9914C24.4588 43.3249 24.0598 42.074 23.2619 41.2389C22.5291 40.4546 21.6717 39.799 20.725 39.2991C19.5002 38.8263 18.2048 38.5657 16.8938 38.5284V37.1516H41.7878V38.5284C40.511 38.5617 39.2504 38.8246 38.0655 39.3049C37.0785 39.786 36.186 40.4431 35.4312 41.2447C34.6313 42.076 34.2324 43.3268 34.2343 44.9971V98.5769H54.2463C55.8513 98.3972 57.3567 97.7032 58.5413 96.5968C59.6275 95.5634 60.601 93.9546 61.4619 91.7705C62.3228 89.5863 62.7543 86.4853 62.7562 82.4672H64.2823Z" fill="white"/>
<path d="M47.5547 74.2954C45.3707 74.2954 43.2358 74.9484 41.42 76.1717C39.6041 77.395 38.189 79.1336 37.3535 81.1678C36.518 83.202 36.2996 85.4402 36.7261 87.5995C37.1526 89.7587 38.2047 91.742 39.7494 93.2984C41.2941 94.8548 43.262 95.9144 45.4042 96.3432C47.5463 96.772 49.7665 96.5508 51.7839 95.7075C53.8013 94.8641 55.5253 93.4366 56.7378 91.6055C57.9503 89.7743 58.5969 87.6218 58.5958 85.4201C58.5905 82.4703 57.4253 79.643 55.3557 77.5577C53.2861 75.4724 50.4808 74.2993 47.5547 74.2954ZM47.5547 95.4249C45.593 95.4254 43.6753 94.8396 42.044 93.7415C40.4126 92.6434 39.1408 91.0823 38.3895 89.2557C37.6382 87.429 37.441 85.4187 37.8229 83.4791C38.2049 81.5395 39.1487 79.7575 40.5352 78.3587C41.9217 76.9598 43.6885 76.0067 45.6122 75.62C47.5359 75.2333 49.5302 75.4303 51.3429 76.1862C53.1555 76.942 54.7052 78.2227 55.7959 79.8663C56.8866 81.5099 57.4693 83.4427 57.4705 85.4201C57.4689 88.0716 56.424 90.6141 54.565 92.4898C52.706 94.3655 50.1848 95.421 47.5547 95.4249Z" fill="white"/>
<path d="M47.5546 77.3379C45.9689 77.3379 44.4189 77.8119 43.1004 78.7C41.782 79.5881 40.7543 80.8504 40.1475 82.3272C39.5407 83.8041 39.3819 85.4291 39.6913 86.997C40.0006 88.5648 40.7642 90.0049 41.8855 91.1352C43.0067 92.2655 44.4353 93.0353 45.9905 93.3472C47.5457 93.659 49.1578 93.499 50.6228 92.8872C52.0877 92.2755 53.3399 91.2396 54.2209 89.9105C55.1018 88.5813 55.572 87.0187 55.572 85.4202C55.5675 83.278 54.7213 81.2249 53.2188 79.7102C51.7162 78.1955 49.6796 77.3425 47.5546 77.3379ZM45.0778 79.7164C46.687 78.7812 48.4623 78.8504 49.0436 79.8636C49.6248 80.8768 48.7945 82.4615 47.1853 83.3996C45.5761 84.3377 43.8008 84.2656 43.2195 83.2524C42.6382 82.2392 43.4686 80.6487 45.0778 79.7135V79.7164ZM47.5546 92.3883C46.6013 92.3895 45.6581 92.1907 44.7851 91.8046C43.9121 91.4184 43.1283 90.8534 42.4836 90.1454C43.1791 90.7728 43.9949 91.2498 44.8805 91.5469C45.766 91.8439 46.7026 91.9548 47.6324 91.8725C48.5621 91.7903 49.4653 91.5167 50.286 91.0687C51.1067 90.6207 51.8276 90.0078 52.4041 89.2679C52.9806 88.528 53.4004 87.6767 53.6377 86.7667C53.8749 85.8568 53.9246 84.9074 53.7835 83.9774C53.6425 83.0473 53.3137 82.1563 52.8176 81.3594C52.3215 80.5624 51.6685 79.8765 50.899 79.344C52.236 80.0922 53.2887 81.2667 53.892 82.6831C54.4953 84.0996 54.615 85.6779 54.2324 87.1704C53.8497 88.6628 52.9864 89.985 51.7778 90.9294C50.5692 91.8737 49.0838 92.3869 47.5546 92.3883Z" fill="white"/>
<path d="M58.1662 33.5752C57.0619 31.1381 55.2984 29.0642 53.078 27.5914C51.9327 26.8467 50.8933 26.1741 49.4988 26.2607C47.1738 26.4051 45.4901 28.5411 44.7943 30.2297C44.0126 32.1406 43.858 35.056 45.3527 36.2337C46.1716 36.8774 47.128 36.811 48.7458 36.6147C51.3089 36.3227 53.9001 36.3975 56.4425 36.837C54.9607 37.4479 53.5799 38.2831 52.3479 39.3136C50.6699 40.7165 48.5081 42.6158 48.7085 45.0001C48.9118 47.4335 51.4745 48.894 52.4824 49.4685C52.9119 49.7138 56.6773 51.8585 58.9193 50.1959C59.9214 49.4511 60.1505 48.2792 60.5228 46.4896C61.0406 43.9519 61.0406 41.3346 60.5228 38.7969C61.2413 39.493 61.8062 40.334 62.1806 41.2649C63.011 43.3808 62.3238 44.8529 63.5407 46.4607C63.8645 46.9391 64.3219 47.3098 64.855 47.5258C66.5301 48.1407 68.732 46.7176 69.7599 45.1618C71.5753 42.4138 70.4672 38.1475 68.2481 36.7013C67.9245 36.4906 67.6096 36.3607 64.1964 35.7517C62.5071 35.463 61.1069 35.2177 60.1247 35.0589C61.0498 34.3257 62.0983 33.7664 63.22 33.4078C66.8135 32.2763 69.0928 33.9851 70.4987 32.6746C71.7013 31.5402 71.2976 29.0722 70.639 27.6521C69.5137 25.2274 66.742 23.8996 64.268 24.2604C61.7941 24.6212 60.3567 26.6216 59.7668 27.4875C58.5885 29.2862 58.0263 31.4243 58.1662 33.5752Z" fill="white"/>
<path d="M50.5095 75.5367C49.6219 75.8254 48.7714 75.1817 48.0441 74.6217C47.0992 73.8885 46.707 72.9735 46.0856 71.5245C45.678 70.5745 45.3541 69.5903 45.1178 68.5831C48.591 67.4458 51.6777 68.687 52.4337 70.6498C53.1066 72.4077 52.0328 75.0287 50.5095 75.5367Z" fill="white"/>
<path d="M62.3925 70.2513C60.6745 71.2299 58.504 70.1965 57.7367 69.7808L57.5133 69.6538C55.8211 68.6464 55.3601 66.9896 54.1403 64.0511C53.854 63.3698 53.4101 62.3191 52.806 61.0346C57.4045 58.965 61.9687 60.1542 63.5636 62.934C64.8464 65.171 64.5371 69.0159 62.3925 70.2513Z" fill="white"/>
<path d="M43.48 46.2587C44.7972 45.2657 47.7579 46.4319 48.8431 48.4467C49.6191 49.8899 49.2984 51.4804 49.0579 52.5224C48.7963 53.655 48.3283 54.7287 47.6777 55.689C46.8817 55.2329 42.9675 52.8948 42.7012 49.1134C42.664 48.5535 42.5494 46.9572 43.48 46.2587Z" fill="white"/>
<path d="M42.9731 56.3874C43.981 57.1668 44.1185 58.408 44.1872 58.9391C44.4277 61.0087 43.2108 62.5502 42.913 62.9052C42.4348 62.6339 41.7677 62.2269 40.9745 61.69C39.7118 60.824 39.0732 60.3853 38.7354 59.7704C38.3259 59.0228 37.9995 57.6777 38.6724 56.7136C39.5486 55.4579 41.7362 55.432 42.9731 56.3874Z" fill="white"/>
<path d="M14.2396 101.192C13.7217 100.501 13.3113 99.7336 13.0227 98.9175C12.737 98.0875 12.5711 97.2203 12.5302 96.3427C12.4932 95.4603 12.5673 94.5767 12.7507 93.7131C12.9322 92.8524 13.1959 92.0114 13.5381 91.2018C13.707 90.8006 13.8931 90.4023 14.085 90.0155C14.1766 89.8249 14.2854 89.6287 14.3914 89.4382C14.4973 89.2476 14.6032 89.0485 14.7264 88.8608L15.0814 88.3066L15.4623 87.7755C15.5854 87.5937 15.72 87.4234 15.8545 87.253C15.9891 87.0827 16.1208 86.9095 16.2583 86.7421C17.3636 85.4203 18.5474 84.1672 19.8031 82.9896C22.2942 80.6227 24.9428 78.4549 27.6258 76.3506C30.3088 74.2463 33.0461 72.2056 35.7663 70.1619C37.1235 69.1372 38.4865 68.1211 39.818 67.0791C40.4823 66.5566 41.1437 66.0313 41.7794 65.4828C42.0943 65.1942 42.4179 64.9402 42.73 64.6573L43.6549 63.7913C44.8727 62.6367 46.0295 61.4196 47.1252 60.1399C47.4116 59.8195 47.6607 59.4904 47.9298 59.1671L48.3307 58.6793L48.7144 58.1799L49.4789 57.1754L50.2062 56.1449C50.7016 55.4637 51.1425 54.7449 51.6064 54.0406L51.7782 53.7779C51.8355 53.6885 51.8899 53.5961 51.9443 53.5066L52.2678 52.9668L52.9207 51.8815L53.5306 50.7731L53.8312 50.2044C53.9343 50.0226 54.0374 49.8378 54.1176 49.6473L54.6902 48.5158C54.8792 48.1377 55.0768 47.7653 55.2457 47.3785L55.7754 46.2239L56.0389 45.6466C56.1305 45.4561 56.2049 45.2569 56.288 45.0693L56.7748 43.8973C56.9351 43.5077 57.104 43.118 57.2443 42.7196L57.691 41.5304L57.9172 40.9387L58.0289 40.65C58.0661 40.549 58.0976 40.4479 58.132 40.3613L58.9452 37.954L60.3425 38.4014L59.5236 40.8578L59.4205 41.1638L59.306 41.4525L59.0798 42.0586L58.6273 43.271C58.4813 43.678 58.3095 44.0734 58.1434 44.4718L57.6452 45.6668C57.5622 45.866 57.4849 46.068 57.3932 46.2643L57.1212 46.8416L56.58 48.0164C56.4054 48.4119 56.2021 48.7958 56.0074 49.171L55.4204 50.3257C55.3259 50.519 55.2228 50.7096 55.1169 50.903L54.8019 51.4803L54.1748 52.6147L53.5048 53.7231L53.1698 54.2802C53.1154 54.3726 53.061 54.4649 53.0037 54.5689L52.8233 54.8402C52.3451 55.5589 51.8841 56.2835 51.3687 56.9878L50.6128 58.0385L49.8225 59.0603L49.4245 59.5712L49.0093 60.0706C48.723 60.4025 48.4567 60.7374 48.1761 61.0635C47.0308 62.3625 45.8301 63.6056 44.574 64.7929L43.6148 65.6589C43.2941 65.9476 42.9562 66.2189 42.6298 66.5018C41.9712 67.0589 41.2926 67.59 40.6254 68.1125C39.2663 69.1574 37.8976 70.1792 36.5194 71.178C33.7677 73.1841 31.0131 75.1758 28.3101 77.2397C25.6071 79.3035 22.9557 81.4107 20.4703 83.7055C17.9849 86.0003 15.6026 88.4538 14.2768 91.5309C13.935 92.2891 13.6545 93.0739 13.4379 93.8776C13.2235 94.6805 13.1024 95.5059 13.0771 96.337C13.0652 96.7532 13.0805 97.1697 13.1229 97.5839C13.1229 97.6879 13.1229 97.7947 13.1544 97.8957L13.2088 98.2045L13.2603 98.5163C13.2804 98.6173 13.3033 98.7212 13.3291 98.8223C13.5328 99.6476 13.8387 100.444 14.2396 101.192Z" fill="white"/>
<path d="M42.6067 132.202C37.0102 132.208 31.4675 131.101 26.2958 128.945C21.1242 126.788 16.4251 123.625 12.4677 119.636C8.51017 115.646 5.37193 110.91 3.23258 105.696C1.09322 100.483 -0.00525483 94.8953 1.88993e-05 89.2535V42.9304C0.00751548 33.0224 3.41185 23.4214 9.63646 15.7537C15.8611 8.08598 24.5233 2.82276 34.1561 0.855469C43.789 -1.11182 53.8002 0.337735 62.4944 4.95864C71.1885 9.57954 78.0312 17.0878 81.8634 26.2116C84.0838 31.5007 85.2223 37.1872 85.2106 42.9304V89.2535C85.2151 94.8949 84.1162 100.482 81.9768 105.695C79.8373 110.907 76.6993 115.644 72.7423 119.633C68.7853 123.622 64.0869 126.785 58.9159 128.942C53.7449 131.099 48.2028 132.207 42.6067 132.202ZM42.6067 2.44105C20.4587 2.44105 2.44246 20.6031 2.44246 42.9304V89.2535C2.44246 111.578 20.4587 129.743 42.6067 129.743C64.7519 129.743 82.7682 111.578 82.7682 89.2535V42.9304C82.7682 20.6031 64.7519 2.44105 42.6067 2.44105Z" fill="white"/>
<path d="M36.2529 70.9875L35.9666 70.4535C38.2896 69.0958 40.9238 68.3725 43.6089 68.355H43.6919C44.4178 68.3589 45.1424 68.4177 45.8595 68.5311L45.765 69.1401C45.0783 69.0303 44.3843 68.9733 43.6891 68.9698C41.0776 68.972 38.5127 69.6679 36.2529 70.9875Z" fill="white"/>
<path d="M43.5603 65.1105L43.168 64.6371C45.5634 62.5581 48.5113 61.2333 51.6464 60.8269C52.5893 60.7182 53.5403 60.6988 54.4868 60.7692L54.441 61.384C53.5336 61.3155 52.6219 61.3339 51.7179 61.4389C48.701 61.832 45.8647 63.1086 43.5603 65.1105Z" fill="white"/>
<path d="M41.2038 67.5872L40.8087 67.2986C42.2207 65.3686 42.9195 63.0019 42.7844 60.6076L43.2711 60.5787C43.4168 63.0868 42.6852 65.5669 41.2038 67.5872Z" fill="white"/>
<path d="M45.5761 62.8621L45.1208 62.4522C46.1301 61.312 46.8503 59.9422 47.2196 58.4601C47.529 57.215 47.5807 55.9189 47.3714 54.6528L47.9727 54.5517C48.1963 55.9013 48.1417 57.2828 47.8123 58.6102C47.4175 60.1884 46.6503 61.6471 45.5761 62.8621Z" fill="white"/>
<path d="M164.892 85.2597C163.282 85.3253 162.361 85.3581 162.131 85.3581C160.915 85.3581 158.713 85.2925 155.524 85.1613C152.336 85.063 145.713 85.0136 135.655 85.0136H123.131C122.671 85.0136 120.995 85.0792 118.102 85.2103C115.21 85.3743 113.451 85.4565 112.827 85.4565C110.329 85.4565 109.08 85.1286 109.08 84.4723C109.08 83.9477 109.573 83.6691 110.559 83.6363C113.747 83.4396 115.966 82.7671 117.215 81.6194C118.464 80.4385 119.318 78.7661 119.779 76.6015C120.239 74.4044 120.469 68.5015 120.469 58.8923L120.518 41.2815C120.518 35.5752 120.255 31.5906 119.729 29.3278C119.236 27.0649 118.184 25.3432 116.574 24.1626C114.996 22.9491 113.205 22.2605 111.2 22.0965C110.148 21.9981 109.622 21.6538 109.622 21.0634C109.622 20.4731 110.099 20.178 111.052 20.178C111.282 20.178 111.709 20.1944 112.334 20.2272C117.56 20.5223 123.674 20.6699 130.675 20.6699L139.353 20.5223C140.24 20.5223 140.684 20.8503 140.684 21.5062C140.684 22.0965 140.207 22.3916 139.254 22.3916C136.92 22.3916 134.964 22.8508 133.387 23.769C131.842 24.6873 130.806 25.7531 130.281 26.9665C129.787 28.1472 129.541 30.4756 129.541 33.9518L129.147 57.2199L129.245 70.2067C129.245 74.2405 129.409 76.8642 129.738 78.0775C130.1 79.2908 130.823 80.3895 131.908 81.3733C132.992 82.3243 134.964 82.7999 137.824 82.7999C138.054 82.7999 140.996 82.7016 146.65 82.5048C151.153 81.8818 155.196 79.6843 158.779 75.9129C162.361 72.1414 164.744 68.7638 165.928 65.7794C166.289 64.9268 166.733 64.5005 167.259 64.5005C167.818 64.5005 168.097 64.894 168.097 65.681C168.097 66.5992 167.621 69.895 166.667 75.5687C165.714 81.2093 165.122 84.4395 164.892 85.2597ZM184.367 43.692C184.532 45.8236 184.68 51.9891 184.811 62.1885C184.877 68.5505 185.041 72.7976 185.304 74.9291C185.567 77.0282 186.389 78.7661 187.769 80.1434C189.183 81.5211 190.793 82.2097 192.602 82.2097C194.968 82.2097 197.335 81.111 199.701 78.9139C202.101 76.7165 203.58 74.3716 204.138 71.8791C204.697 69.3541 204.977 63.5819 204.977 54.5635C204.977 50.3657 204.714 47.8241 204.188 46.9386C203.662 46.0532 202.38 45.5449 200.342 45.4137C199.586 45.3809 199.208 45.1021 199.208 44.5774C199.208 44.2167 199.323 43.9871 199.553 43.8887C199.783 43.7576 200.523 43.692 201.772 43.692H211.633C211.929 47.2666 212.077 51.2676 212.077 55.6949L211.682 74.1911C211.682 77.9953 211.994 80.3895 212.619 81.3733C213.276 82.357 214.295 82.9149 215.676 83.0461C216.53 83.1772 216.958 83.5052 216.958 84.0298C216.958 84.6201 216.12 84.9152 214.443 84.9152H206.653C205.305 84.9152 204.631 84.4723 204.631 83.5869C204.631 83.3246 204.648 83.0295 204.681 82.7016C204.78 81.7178 204.829 80.7175 204.829 79.7009C204.829 78.8483 204.78 77.6018 204.681 75.9622C202.183 79.1762 199.586 81.5866 196.891 83.1934C194.195 84.8002 191.385 85.6038 188.46 85.6038C185.962 85.6038 183.858 84.997 182.149 83.7837C180.473 82.5704 179.355 81.111 178.796 79.4058C178.27 77.6674 177.909 73.3713 177.711 66.5174C177.514 59.6631 177.416 54.2847 177.416 50.3821C177.416 48.2504 177.3 46.9222 177.07 46.3975C176.84 45.8728 176.117 45.5777 174.901 45.5121C173.586 45.4137 172.929 45.0857 172.929 44.5282C172.929 43.9707 173.718 43.692 175.295 43.692H184.367ZM236.384 42.9049C237.172 44.8398 237.649 48.1029 237.814 52.6942C239.851 49.4802 242.103 47.0698 244.568 45.4629C247.067 43.8559 249.778 43.0525 252.703 43.0525C254.939 43.0525 257.092 43.4788 259.162 44.3315C261.266 45.1513 262.877 46.5943 263.994 48.6604C265.145 50.6937 265.72 54.17 265.72 59.0891L265.424 75.6671C265.424 78.7168 265.671 80.6353 266.164 81.4227C266.689 82.1769 267.791 82.7833 269.467 83.2428C270.618 83.5707 271.193 83.9315 271.193 84.325C271.193 84.8168 270.913 85.063 270.355 85.063C270.125 85.063 269.894 85.0464 269.664 85.0136C268.152 84.6857 265.917 84.5217 262.959 84.5217C260.296 84.5217 257.436 84.6363 254.38 84.8658C253.163 84.8658 252.556 84.5873 252.556 84.0298C252.556 83.6363 252.884 83.374 253.542 83.2428C255.349 82.8489 256.533 82.4392 257.092 82.0129C257.65 81.5866 258.045 81.0292 258.275 80.3402C258.505 79.6187 258.686 77.2411 258.817 73.2073C258.982 69.1735 259.064 65.894 259.064 63.369C259.064 56.4492 258.193 51.8415 256.451 49.5459C254.709 47.2502 252.539 46.1024 249.943 46.1024C246.097 46.1024 242.892 48.1849 240.328 52.3498C237.797 56.482 236.532 63.3852 236.532 73.06C236.532 77.4545 236.811 80.2584 237.37 81.4717C237.961 82.6522 239.408 83.374 241.708 83.6363C242.432 83.7019 242.793 84.0132 242.793 84.5707C242.793 85.0302 242.432 85.2597 241.708 85.2597L239.145 85.063C238.224 84.997 235.184 84.9642 230.023 84.9642L226.079 85.063C224.633 85.063 223.91 84.8002 223.91 84.2756C223.91 83.7181 224.699 83.2918 226.276 82.9967C227.788 82.7016 228.807 82.1931 229.333 81.4717C229.859 80.7175 230.204 78.2577 230.369 74.0927C230.566 69.9278 230.665 64.73 230.665 58.4988C230.665 52.6942 230.27 49.0867 229.481 47.6765C228.692 46.2664 227.591 45.3973 226.178 45.0693C224.896 44.7742 224.255 44.3642 224.255 43.8395C224.255 43.282 224.748 43.0033 225.734 43.0033L229.728 43.0525C230.155 43.0525 232.374 43.0033 236.384 42.9049ZM302.994 78.7168C301.383 81.0454 299.461 82.7999 297.225 83.9804C294.99 85.1285 292.459 85.7022 289.633 85.7022C286.313 85.7022 283.7 84.8168 281.793 83.0461C279.92 81.2749 278.983 78.9467 278.983 76.0606C278.983 73.896 279.541 71.8791 280.659 70.0099C281.81 68.1404 283.108 66.7959 284.554 65.9761C286.033 65.1563 288.613 64.1232 292.295 62.8771C297.554 61.1387 300.709 59.6959 301.762 58.5482C302.813 57.4002 303.339 55.9081 303.339 54.0715C303.339 51.1528 302.649 48.89 301.268 47.283C299.888 45.6432 297.932 44.8234 295.401 44.8234C293.33 44.8234 291.769 45.2825 290.717 46.2008C289.666 47.1518 288.86 49.0047 288.301 51.7595C287.71 54.7766 286.411 56.2852 284.406 56.2852C283.683 56.2852 282.878 55.9245 281.99 55.203C281.136 54.4815 280.708 53.4157 280.708 52.0055C280.708 49.5459 282.073 47.4142 284.8 45.6105C287.529 43.774 291.276 42.8557 296.042 42.8557C299.822 42.8557 302.83 43.3968 305.065 44.479C307.333 45.5285 308.746 46.7419 309.305 48.1193C309.897 49.4966 310.192 52.1531 310.192 56.0884L309.897 69.0752C309.897 74.0927 310.192 77.6674 310.784 79.7993C311.409 81.898 312.543 82.9477 314.186 82.9477C314.515 82.9477 314.975 82.8983 315.567 82.7999L316.405 82.7016C317.161 82.7016 317.539 82.9805 317.539 83.5379C317.539 84.8168 314.301 85.4565 307.826 85.4565C305.952 85.4565 304.687 85.0302 304.029 84.1772C303.405 83.2918 303.06 81.4717 302.994 78.7168ZM302.994 59.5319C302.008 60.8108 299.773 62.3686 296.289 64.2054C292.837 65.9761 290.356 67.6651 288.843 69.2719C287.332 70.9119 286.576 72.8794 286.576 75.1752C286.576 77.2411 287.184 78.9957 288.4 80.4385C289.649 81.8818 291.194 82.6032 293.035 82.6032C294.941 82.6032 296.732 82.0291 298.409 80.8814C300.085 79.7009 301.318 78.2087 302.106 76.4047C302.928 74.6012 303.339 71.9284 303.339 68.3865C303.339 65.73 303.224 62.7787 302.994 59.5319ZM335.732 53.924C337.803 50.2509 340.005 47.4962 342.339 45.6596C344.705 43.8231 347.187 42.9049 349.784 42.9049C351.592 42.9049 353.153 43.5608 354.468 44.8726C355.783 46.1516 356.44 47.611 356.44 49.2507C356.44 52.3662 355.109 53.924 352.447 53.924C351.197 53.924 350.145 53.0549 349.291 51.3168C348.239 49.1195 346.842 48.0209 345.1 48.0209C343.457 48.0209 341.764 48.9391 340.022 50.7756C338.279 52.6122 337.113 54.6291 336.521 56.8263C335.929 58.9907 335.634 63.5491 335.634 70.5018C335.634 76.8642 335.896 80.5207 336.422 81.4717C336.948 82.3898 338.296 82.9805 340.465 83.2428C341.057 83.3084 341.353 83.5379 341.353 83.9315C341.353 84.6201 340.581 84.9642 339.035 84.9642H323.307C322.19 84.9642 321.631 84.6857 321.631 84.1282C321.631 83.6035 322.371 83.3084 323.85 83.2428C325.92 83.1117 327.203 82.472 327.696 81.3243C328.189 80.1762 328.435 75.9456 328.435 68.6327C328.435 57.9085 328.205 51.4644 327.745 49.2999C327.318 47.1354 325.674 45.9876 322.814 45.8564C321.631 45.7909 321.04 45.4793 321.04 44.9217C321.04 44.6266 321.154 44.4134 321.384 44.2823C321.647 44.1183 323.16 43.9543 325.92 43.7903L334.992 43.2984C335.222 45.0694 335.469 48.6112 335.732 53.924ZM370.295 18.7022C371.544 18.7022 372.661 19.1613 373.647 20.0796C374.633 20.9979 375.126 21.9981 375.126 23.0803C375.126 24.3594 374.715 25.458 373.894 26.3762C373.105 27.2945 372.004 27.7536 370.59 27.7536C369.342 27.7536 368.224 27.3601 367.238 26.573C366.252 25.7531 365.759 24.6545 365.759 23.2771C365.759 21.9325 366.169 20.8339 366.991 19.9812C367.846 19.1285 368.947 18.7022 370.295 18.7022ZM375.768 42.7573L375.718 53.8256L375.817 64.156V71.9285L375.768 77.8314C375.768 80.1928 376.145 81.7012 376.901 82.357C377.69 82.9805 378.857 83.3246 380.402 83.3902C382.21 83.4886 383.114 83.8659 383.114 84.5217C383.114 85.0464 382.768 85.3087 382.078 85.3087C381.815 85.3087 381.52 85.2925 381.191 85.2597C378.134 84.8658 375.291 84.6691 372.661 84.6691C368.454 84.6691 365.545 84.8002 363.934 85.063C363.606 85.1286 363.277 85.1613 362.948 85.1613C362.159 85.1613 361.765 84.8658 361.765 84.2756C361.765 83.6853 362.685 83.2756 364.526 83.0461C366.367 82.8161 367.533 82.4226 368.026 81.8652C368.552 81.2749 368.815 79.6353 368.815 76.946L369.111 56.5804C369.111 51.1364 368.7 47.9225 367.879 46.9386C367.057 45.922 365.463 45.3809 363.096 45.3153C362.307 45.3153 361.913 45.053 361.913 44.5282C361.913 44.2331 362.044 44.0035 362.307 43.8395C362.57 43.6756 364.526 43.4624 368.175 43.2C371.823 42.9377 374.354 42.7901 375.768 42.7573ZM413.535 78.7168C411.924 81.0454 410.001 82.7999 407.766 83.9804C405.531 85.1285 403 85.7022 400.173 85.7022C396.853 85.7022 394.24 84.8168 392.334 83.0461C390.46 81.2749 389.523 78.9467 389.523 76.0606C389.523 73.896 390.082 71.8791 391.2 70.0099C392.35 68.1404 393.649 66.7959 395.095 65.9761C396.574 65.1563 399.154 64.1232 402.836 62.8771C408.095 61.1387 411.25 59.6959 412.302 58.5482C413.354 57.4002 413.88 55.9081 413.88 54.0715C413.88 51.1528 413.189 48.89 411.809 47.283C410.428 45.6432 408.472 44.8234 405.942 44.8234C403.871 44.8234 402.309 45.2825 401.258 46.2008C400.206 47.1518 399.401 49.0047 398.842 51.7595C398.25 54.7766 396.952 56.2852 394.947 56.2852C394.224 56.2852 393.418 55.9245 392.531 55.203C391.676 54.4815 391.249 53.4157 391.249 52.0055C391.249 49.5459 392.613 47.4142 395.341 45.6105C398.069 43.774 401.816 42.8557 406.583 42.8557C410.363 42.8557 413.37 43.3968 415.605 44.479C417.874 45.5285 419.287 46.7419 419.846 48.1193C420.437 49.4966 420.733 52.1531 420.733 56.0884L420.437 69.0752C420.437 74.0927 420.733 77.6674 421.325 79.7993C421.949 81.898 423.083 82.9477 424.727 82.9477C425.055 82.9477 425.516 82.8983 426.107 82.7999L426.946 82.7016C427.701 82.7016 428.08 82.9805 428.08 83.5379C428.08 84.8168 424.842 85.4565 418.367 85.4565C416.493 85.4565 415.227 85.0302 414.57 84.1772C413.945 83.2918 413.6 81.4717 413.535 78.7168ZM413.535 59.5319C412.548 60.8108 410.313 62.3686 406.829 64.2054C403.378 65.9761 400.896 67.6651 399.384 69.2719C397.872 70.9119 397.116 72.8794 397.116 75.1752C397.116 77.2411 397.724 78.9957 398.94 80.4385C400.189 81.8818 401.734 82.6032 403.575 82.6032C405.482 82.6032 407.273 82.0291 408.949 80.8814C410.625 79.7009 411.858 78.2087 412.647 76.4047C413.469 74.6012 413.88 71.9284 413.88 68.3865C413.88 65.73 413.765 62.7787 413.535 59.5319Z" fill="#EFE3CF"/>
<path d="M124.16 111.534C125.23 111.534 126.1 111.375 126.769 111.058C127.438 110.74 127.925 110.292 128.231 109.713C128.556 109.135 128.718 108.462 128.718 107.697C128.718 106.483 128.355 105.54 127.629 104.867C126.922 104.195 125.765 103.859 124.16 103.859H119.373V111.534H124.16ZM130.983 107.697C130.983 108.462 130.849 109.2 130.581 109.909C130.333 110.6 129.932 111.217 129.377 111.758C128.823 112.3 128.116 112.729 127.256 113.047C126.396 113.346 125.364 113.495 124.16 113.495H119.373V121.506H117.08V101.898H124.16C125.727 101.898 127.008 102.16 128.001 102.683C129.014 103.205 129.76 103.906 130.237 104.783C130.734 105.661 130.983 106.632 130.983 107.697ZM143.805 101.898H146.098V110.554H156.848V101.898H159.142V121.506H156.848V112.515H146.098V121.506H143.805V101.898ZM181.991 121.702C180.577 121.702 179.258 121.459 178.035 120.974C176.831 120.488 175.77 119.807 174.853 118.929C173.955 118.033 173.247 116.978 172.731 115.764C172.235 114.531 171.986 113.177 171.986 111.702C171.986 110.227 172.235 108.882 172.731 107.669C173.247 106.436 173.955 105.381 174.853 104.503C175.77 103.607 176.831 102.916 178.035 102.431C179.258 101.945 180.577 101.702 181.991 101.702C183.386 101.702 184.685 101.945 185.889 102.431C187.113 102.916 188.173 103.607 189.071 104.503C189.969 105.381 190.667 106.436 191.164 107.669C191.68 108.882 191.938 110.227 191.938 111.702C191.938 113.177 191.68 114.531 191.164 115.764C190.667 116.978 189.969 118.033 189.071 118.929C188.173 119.807 187.113 120.488 185.889 120.974C184.685 121.459 183.386 121.702 181.991 121.702ZM181.991 119.741C183.424 119.741 184.714 119.415 185.86 118.761C187.007 118.107 187.915 117.183 188.584 115.988C189.253 114.774 189.587 113.346 189.587 111.702C189.587 110.04 189.253 108.612 188.584 107.416C187.915 106.203 187.007 105.278 185.86 104.643C184.714 103.99 183.424 103.663 181.991 103.663C180.538 103.663 179.229 103.99 178.063 104.643C176.917 105.278 176.009 106.203 175.34 107.416C174.671 108.612 174.337 110.04 174.337 111.702C174.337 113.346 174.671 114.774 175.34 115.988C176.009 117.183 176.917 118.107 178.063 118.761C179.229 119.415 180.538 119.741 181.991 119.741ZM202.995 101.898H218.045V103.859H211.681V121.506H209.387V103.859H202.995V101.898ZM239.109 121.702C237.695 121.702 236.376 121.459 235.153 120.974C233.949 120.488 232.889 119.807 231.971 118.929C231.073 118.033 230.366 116.978 229.85 115.764C229.353 114.531 229.105 113.177 229.105 111.702C229.105 110.227 229.353 108.882 229.85 107.669C230.366 106.436 231.073 105.381 231.971 104.503C232.889 103.607 233.949 102.916 235.153 102.431C236.376 101.945 237.695 101.702 239.109 101.702C240.504 101.702 241.804 101.945 243.008 102.431C244.231 102.916 245.291 103.607 246.19 104.503C247.088 105.381 247.785 106.436 248.282 107.669C248.798 108.882 249.056 110.227 249.056 111.702C249.056 113.177 248.798 114.531 248.282 115.764C247.785 116.978 247.088 118.033 246.19 118.929C245.291 119.807 244.231 120.488 243.008 120.974C241.804 121.459 240.504 121.702 239.109 121.702ZM239.109 119.741C240.542 119.741 241.832 119.415 242.979 118.761C244.126 118.107 245.033 117.183 245.702 115.988C246.371 114.774 246.706 113.346 246.706 111.702C246.706 110.04 246.371 108.612 245.702 107.416C245.033 106.203 244.126 105.278 242.979 104.643C241.832 103.99 240.542 103.663 239.109 103.663C237.657 103.663 236.347 103.99 235.182 104.643C234.035 105.278 233.128 106.203 232.459 107.416C231.79 108.612 231.455 110.04 231.455 111.702C231.455 113.346 231.79 114.774 232.459 115.988C233.128 117.183 234.035 118.107 235.182 118.761C236.347 119.415 237.657 119.741 239.109 119.741ZM277.586 107.781C276.86 106.38 275.895 105.353 274.691 104.699C273.487 104.027 272.149 103.691 270.678 103.691C269.225 103.691 267.916 104.018 266.75 104.671C265.585 105.325 264.667 106.249 263.998 107.445C263.329 108.64 262.995 110.059 262.995 111.702C262.995 113.327 263.329 114.737 263.998 115.932C264.667 117.127 265.585 118.051 266.75 118.705C267.916 119.359 269.225 119.685 270.678 119.685C271.767 119.685 272.78 119.508 273.716 119.153C274.653 118.78 275.465 118.257 276.153 117.585C276.841 116.894 277.367 116.072 277.73 115.12V112.851H270.85V111.03H280.051V115.232C279.612 116.483 278.943 117.594 278.045 118.565C277.146 119.536 276.067 120.302 274.806 120.862C273.544 121.422 272.168 121.702 270.678 121.702C269.263 121.702 267.945 121.459 266.722 120.974C265.518 120.488 264.457 119.807 263.54 118.929C262.641 118.033 261.934 116.978 261.418 115.764C260.921 114.531 260.673 113.177 260.673 111.702C260.673 110.227 260.921 108.882 261.418 107.669C261.934 106.436 262.641 105.381 263.54 104.503C264.457 103.607 265.518 102.916 266.722 102.431C267.945 101.945 269.263 101.702 270.678 101.702C271.996 101.702 273.229 101.917 274.376 102.346C275.541 102.757 276.573 103.364 277.472 104.167C278.37 104.952 279.077 105.913 279.593 107.052L277.586 107.781ZM304.691 107.697C304.691 106.52 304.337 105.586 303.63 104.895C302.923 104.205 301.767 103.859 300.162 103.859H295.403V111.534H300.19C301.241 111.534 302.092 111.375 302.742 111.058C303.411 110.74 303.898 110.292 304.204 109.713C304.529 109.135 304.691 108.462 304.691 107.697ZM300.162 101.898C301.729 101.898 303.009 102.16 304.003 102.683C305.016 103.205 305.77 103.906 306.267 104.783C306.765 105.642 307.013 106.614 307.013 107.697C307.013 108.462 306.879 109.191 306.611 109.881C306.363 110.572 305.962 111.189 305.408 111.73C304.853 112.272 304.146 112.701 303.286 113.019C302.426 113.336 301.394 113.495 300.19 113.495H295.403V121.506H293.11V101.898H300.162ZM301.824 112.655L307.385 121.506H304.777L299.359 112.655H301.824ZM327.91 103.859H326.964L320.343 121.506H318.021L325.359 101.898H329.487L336.797 121.506H334.475L327.91 103.859ZM321.604 114.391H333.3V116.352H321.604V114.391ZM355.713 111.534C356.783 111.534 357.653 111.375 358.322 111.058C358.99 110.74 359.478 110.292 359.784 109.713C360.108 109.135 360.271 108.462 360.271 107.697C360.271 106.483 359.908 105.54 359.182 104.867C358.474 104.195 357.318 103.859 355.713 103.859H350.926V111.534H355.713ZM362.536 107.697C362.536 108.462 362.402 109.2 362.134 109.909C361.886 110.6 361.484 111.217 360.93 111.758C360.376 112.3 359.669 112.729 358.809 113.047C357.949 113.346 356.917 113.495 355.713 113.495H350.926V121.506H348.633V101.898H355.713C357.28 101.898 358.56 102.16 359.554 102.683C360.567 103.205 361.312 103.906 361.79 104.783C362.287 105.661 362.536 106.632 362.536 107.697ZM375.358 101.898H377.651V110.554H388.401V101.898H390.694V121.506H388.401V112.515H377.651V121.506H375.358V101.898ZM417.528 101.898H420.08L412.741 113.971V121.506H410.448V113.999L403.109 101.898H405.661L411.594 111.842L417.528 101.898Z" fill="#EFE3CF"/>
</svg>
